<svg width="48" height="48" viewBox="0 0 48 48" fill="none" xmlns="http://www.w3.org/2000/svg">
<circle cx="24" cy="24" r="24" fill="#222222"/>
<path d="M24.0001 33.2308C12.0924 33.2308 2.76929 29.1693 2.76929 24.0001C2.76929 18.8308 12.0924 14.7693 24.0001 14.7693C35.9078 14.7693 45.2308 18.8308 45.2308 24.0001C45.2308 29.1693 35.9078 33.2308 24.0001 33.2308ZM24.0001 16.6154C12.3693 16.6154 4.61544 20.4001 4.61544 24.0001C4.61544 27.6001 12.3693 31.3847 24.0001 31.3847C35.6308 31.3847 43.3847 27.6001 43.3847 24.0001C43.3847 20.4001 35.6308 16.6154 24.0001 16.6154Z" fill="#80DEEA"/>
<path d="M15.7847 43.0154C14.8616 43.0154 14.1231 42.8308 13.3847 42.3693C8.86159 39.7846 10.0616 29.7231 15.9693 19.3846C18.7385 14.5846 22.1539 10.5231 25.477 7.93849C29.077 5.16926 32.3077 4.33849 34.5231 5.6308C36.8308 6.92311 37.6616 10.1539 37.1077 14.677C36.5539 18.9231 34.7077 23.9077 31.9385 28.7077C29.1693 33.5077 25.7539 37.5693 22.4308 40.1539C20.0308 42 17.7231 43.0154 15.7847 43.0154ZM32.2154 6.8308C30.7385 6.8308 28.8001 7.66157 26.677 9.32311C23.5385 11.8154 20.3077 15.6923 17.6308 20.3077C11.8154 30.3693 11.2616 39.0462 14.3077 40.8C15.877 41.7231 18.4616 40.8923 21.3231 38.677C24.4616 36.1846 27.6924 32.3077 30.3693 27.6923C33.0462 23.077 34.8001 18.3693 35.3539 14.4C35.8154 10.7077 35.2616 8.12311 33.6924 7.20003C33.2308 7.01542 32.7693 6.8308 32.2154 6.8308Z" fill="#80DEEA"/>
<path d="M32.3078 43.0155C27.6924 43.0155 21.0462 37.3847 16.0616 28.6155C10.0616 18.277 8.86161 8.21546 13.3847 5.63084C17.9078 3.04623 26.0308 9.04623 32.0308 19.3847C34.8001 24.1847 36.6462 29.1693 37.2001 33.4155C37.8462 37.9385 36.9231 41.077 34.6155 42.4616C33.877 42.8308 33.1385 43.0155 32.3078 43.0155ZM14.3078 7.20007C11.2616 8.95392 11.8155 17.6308 17.6308 27.6924C23.4462 37.7539 30.6462 42.5539 33.6924 40.8001C35.2616 39.877 35.8155 37.2924 35.3539 33.6001C34.8001 29.6308 33.0462 24.9232 30.3693 20.3078C24.5539 10.2462 17.3539 5.44623 14.3078 7.20007Z" fill="#80DEEA"/>
<path d="M23.9999 27.6924C26.0391 27.6924 27.6922 26.0393 27.6922 24C27.6922 21.9608 26.0391 20.3077 23.9999 20.3077C21.9607 20.3077 20.3076 21.9608 20.3076 24C20.3076 26.0393 21.9607 27.6924 23.9999 27.6924Z" fill="#80DEEA"/>
</svg>
